<svg xmlns="http://www.w3.org/2000/svg" width="220" height="485" viewBox="0 0 220 485">
<defs><marker id="arrow" markerWidth="8" markerHeight="8" refX="7" refY="4" orient="auto"><path d="M0,0 L8,4 L0,8 Z" fill="#222"/></marker></defs>
<rect width="220" height="485" fill="#fff"/>
<g fill="none" stroke="#222" stroke-width="1.8" marker-end="url(#arrow)">
<path d="M93 52 C65 72 50 91 42 112"/>
<path d="M67 112 C75 91 84 70 94 52"/>
<path d="M112 52 L112 207"/>
<path d="M120 52 C166 93 176 153 141 208"/>
<path d="M62 143 C64 205 66 279 66 411"/>
<path d="M71 137 C83 162 93 180 104 207"/>
<path d="M112 256 L112 306"/>
<path d="M103 363 L75 421"/>
<path d="M66 138 C82 160 92 176 103 207"/>
<path d="M119 343 C104 373 91 398 75 421"/>
</g>
<g font-family="Arial, sans-serif" font-size="14" fill="#222" text-anchor="middle">
<circle cx="108" cy="25" r="22" fill="#fff" stroke="#666" stroke-width="2"/><text x="108" y="30">0</text>
<circle cx="53" cy="125" r="22" fill="#fff" stroke="#666" stroke-width="2"/><text x="53" y="130">2</text>
<circle cx="108" cy="231" r="22" fill="#fff" stroke="#666" stroke-width="2"/><text x="108" y="236">1</text>
<circle cx="133" cy="328" r="22" fill="#fff" stroke="#666" stroke-width="2"/><text x="133" y="333">3</text>
<circle cx="53" cy="454" r="22" fill="#fff" stroke="#666" stroke-width="2"/><text x="53" y="459">4</text>
</g>
<g font-family="Arial, sans-serif" font-size="14" fill="#222">
<text x="35" y="82">2000</text><text x="82" y="91">500</text><text x="116" y="130">1000</text><text x="151" y="169">3000</text><text x="68" y="188">3000</text><text x="64" y="297">2000</text><text x="126" y="282">300</text><text x="101" y="390">600</text>
</g>
</svg>
